# Blender v2.78 (sub 0) OBJ File: 'ship.blend'
# www.blender.org
mtllib ship.mtl
o Craft_Spaceship
v -1.000000 1.020000 -1.200000
v -5.000000 0.112099 0.458605
v -4.346865 0.638960 0.162141
v -4.346865 0.638960 -0.162143
v -1.441707 1.287892 -0.700000
v -1.441708 1.287892 0.700000
v -0.425659 1.300000 -0.400650
v -0.425660 1.300000 0.400650
v -1.000001 1.020000 1.200000
v -0.265989 1.200000 0.400650
v -2.182328 1.495989 -3.260326
v -2.182327 1.495989 -4.061626
v -2.916340 1.315989 -2.460976
v -2.341999 1.595989 -3.260326
v -2.341999 1.595989 -4.061626
v -3.358047 1.583881 -2.960976
v -3.358047 1.583881 -4.360976
v -6.263204 0.934949 -3.823119
v -6.263204 0.934949 -3.498835
v -6.916339 0.183889 -3.202371
v -6.916338 0.183889 -4.119584
v -6.916339 0.408088 -3.202371
v -6.916339 0.408088 -4.119584
v -2.916339 1.315989 -4.860976
v -1.000000 -0.420000 -1.200000
v -5.000000 0.112099 -0.458607
v -5.000000 -0.112100 -0.458608
v -5.000000 -0.112100 0.458605
v -1.000000 -0.420000 1.200000
v 5.000000 -0.000001 2.000000
v -0.500001 -0.243970 2.000000
v -0.500001 0.243969 2.000000
v 1.604852 -0.106442 7.020000
v 1.604852 0.106440 7.020000
v 6.209909 1.109909 -0.100000
v 5.209909 1.509909 -0.100000
v 5.209908 1.509909 0.100001
v 6.209909 1.109909 0.100000
v 6.559293 3.197581 -0.029259
v 6.346087 3.136145 -0.029259
v 6.346087 3.136145 0.029264
v 6.559293 3.197581 0.029264
v 4.225660 1.300000 -0.400650
v 4.225659 1.300000 0.400651
v 3.430097 0.106440 7.020000
v 3.795146 -0.000001 7.020000
v 3.999999 0.543969 1.600000
v 5.500000 0.000000 1.000000
v 3.999999 1.000000 1.000001
v 3.999999 1.000000 -1.000001
v 5.500000 0.000000 -1.000000
v -0.500000 -0.243970 -2.000001
v 3.999999 0.543969 -1.600000
v -0.500000 0.243969 -2.000000
v 5.000000 -0.000001 -2.000000
v 3.795147 -0.000001 -7.020000
v 1.604853 -0.106442 -7.020000
v 3.430098 0.106440 -7.020001
v 1.604853 0.106440 -7.020000
v -0.265988 1.200000 -0.400650
v 2.834091 1.064566 -0.400650
v 2.834090 1.064566 0.400650
v 3.027476 1.426017 -0.400650
v 3.027475 1.426017 0.400650
vn -1.0000 0.0000 -0.0000
vn -0.6279 0.7783 -0.0000
vn -0.2809 0.7110 0.6447
vn -0.2785 0.7223 -0.6330
vn -0.2180 0.9759 -0.0000
vn 0.4393 0.7014 -0.5613
vn 0.5308 0.8475 0.0000
vn 0.4393 0.7014 0.5613
vn 0.1057 0.9124 -0.3955
vn 0.1057 0.9124 0.3955
vn -0.0119 0.9999 -0.0000
vn 0.0645 -0.9979 0.0000
vn -0.1822 0.0000 -0.9833
vn -0.1822 -0.0000 0.9833
vn -0.0767 -0.9971 -0.0000
vn 0.2120 0.5301 -0.8210
vn -0.3884 0.9215 0.0000
vn 0.3521 0.5282 0.7727
vn 0.8424 -0.5388 0.0000
vn 0.0136 0.0340 -0.9993
vn -0.8197 0.5727 -0.0000
vn 0.0136 0.0340 0.9993
vn 0.9863 -0.1651 0.0000
vn -0.2769 0.9609 0.0000
vn -0.1532 0.9056 0.3956
vn 0.7992 -0.6011 0.0000
vn -0.1668 0.9860 -0.0000
vn -0.9222 0.0000 0.3867
vn 0.2793 0.9579 0.0670
vn -0.0000 0.9968 0.0805
vn 0.0443 -0.9990 0.0088
vn -0.8480 -0.0000 0.5300
vn 0.4043 0.8920 0.2022
vn 0.0007 0.7961 0.6051
vn 0.0688 -0.9825 0.1732
vn 0.0688 -0.9825 -0.1732
vn 0.0007 0.7961 -0.6051
vn 0.4688 0.7032 -0.5345
vn -0.8480 -0.0000 -0.5300
vn 0.0443 -0.9990 -0.0088
vn -0.0617 0.9967 -0.0532
vn 0.4377 0.8914 -0.1180
vn -0.9222 0.0000 -0.3867
vn 0.0000 -0.0000 1.0000
vn 0.0000 -0.0000 -1.0000
vn 0.0131 0.9728 0.2311
vn -0.0529 0.7714 -0.6342
vn 0.0131 0.9728 -0.2311
vn -0.1532 0.9056 -0.3956
vn 0.8817 -0.4717 0.0000
vn 0.4345 -0.2324 -0.8702
vn -0.0529 0.7714 0.6342
vn -0.0685 0.9977 -0.0000
vn 0.4345 -0.2324 0.8702
vn -0.2785 0.7223 0.6330
vn -0.2809 0.7110 -0.6447
vn 0.3521 0.5282 -0.7727
vn 0.2120 0.5301 0.8210
vn -0.0103 0.0356 -0.9993
vn -0.0103 0.0356 0.9993
vn 0.4377 0.8914 0.1180
vn -0.0617 0.9967 0.0532
vn 0.0485 -0.9988 0.0116
vn 0.4688 0.7032 0.5345
vn 0.0304 0.7269 0.6861
vn 0.0443 -0.9988 0.0222
vn 0.0443 -0.9988 -0.0222
vn 0.0304 0.7269 -0.6861
vn 0.4043 0.8920 -0.2022
vn 0.0485 -0.9988 -0.0116
vn -0.0000 0.9968 -0.0805
vn 0.2793 0.9579 -0.0670
usemtl Material.TF.1
s off
f 28//1 26//1 27//1
f 26//2 3//2 4//2
f 9//3 3//3 2//3
f 1//4 4//4 5//4
f 5//5 3//5 6//5
f 1//6 7//6 60//6
f 7//7 10//7 60//7
f 10//8 8//8 9//8
f 1//9 5//9 7//9
f 6//10 9//10 8//10
f 5//11 8//11 7//11
f 25//12 48//12 29//12
f 25//13 26//13 1//13
f 29//14 2//14 28//14
f 29//15 27//15 25//15
f 51//16 36//16 35//16
f 37//17 50//17 49//17
f 48//18 37//18 49//18
f 35//19 48//19 51//19
f 40//20 35//20 36//20
f 41//21 36//21 37//21
f 38//22 41//22 37//22
f 39//23 38//23 35//23
f 40//24 42//24 39//24
f 49//25 44//25 62//25
f 50//26 44//26 49//26
f 61//27 44//27 43//27
f 31//28 34//28 32//28
f 30//29 45//29 46//29
f 47//30 34//30 45//30
f 30//31 33//31 31//31
f 29//32 32//32 9//32
f 48//33 47//33 30//33
usemtl Material.TF.16385
f 49//34 32//34 47//34
usemtl Material.TF.1
f 48//35 31//35 29//35
f 52//36 51//36 25//36
f 54//37 50//37 53//37
f 51//38 53//38 50//38
f 54//39 25//39 1//39
f 57//40 55//40 52//40
f 53//41 59//41 54//41
f 55//42 58//42 53//42
f 59//43 52//43 54//43
f 45//44 33//44 46//44
f 57//45 58//45 56//45
f 10//46 9//46 49//46
f 60//47 63//47 50//47
f 50//48 1//48 60//48
f 61//49 43//49 50//49
f 61//50 64//50 62//50
f 62//51 64//51 49//51
f 64//52 10//52 49//52
f 60//53 64//53 63//53
f 63//54 61//54 50//54
f 28//1 2//1 26//1
f 26//2 2//2 3//2
f 9//55 6//55 3//55
f 1//56 26//56 4//56
f 5//5 4//5 3//5
f 7//7 8//7 10//7
f 5//11 6//11 8//11
f 25//12 51//12 48//12
f 25//13 27//13 26//13
f 29//14 9//14 2//14
f 29//15 28//15 27//15
f 51//57 50//57 36//57
f 37//17 36//17 50//17
f 48//58 38//58 37//58
f 35//19 38//19 48//19
f 40//59 39//59 35//59
f 41//21 40//21 36//21
f 38//60 42//60 41//60
f 39//23 42//23 38//23
f 40//24 41//24 42//24
f 50//26 43//26 44//26
f 61//27 62//27 44//27
f 31//28 33//28 34//28
f 30//61 47//61 45//61
f 47//62 32//62 34//62
f 30//63 46//63 33//63
f 29//32 31//32 32//32
f 48//64 49//64 47//64
usemtl Material.TF.16385
f 49//65 9//65 32//65
usemtl Material.TF.1
f 48//66 30//66 31//66
f 52//67 55//67 51//67
f 54//68 1//68 50//68
f 51//69 55//69 53//69
f 54//39 52//39 25//39
f 57//70 56//70 55//70
f 53//71 58//71 59//71
f 55//72 56//72 58//72
f 59//43 57//43 52//43
f 45//44 34//44 33//44
f 57//45 59//45 58//45
f 61//50 63//50 64//50
f 60//53 10//53 64//53
