# Blender v2.78 (sub 0) OBJ File: 'unitcubes.blend'
# www.blender.org
o Cube
v -0.500000 0.500000 -0.500000
v 0.500000 0.500000 -0.500000
v 0.500000 -0.500000 -0.500000
v -0.500000 -0.500000 -0.500000
v -0.500000 0.500000 0.500000
v 0.500000 0.500000 0.500000
v 0.500000 -0.500000 0.500000
v -0.500000 -0.500000 0.500000
v -0.500000 2.500000 -0.500000
v 0.500000 2.500000 -0.500000
v 0.500000 1.500000 -0.500000
v -0.500000 1.500000 -0.500000
v -0.500000 2.500000 0.500000
v 0.500000 2.500000 0.500000
v 0.500000 1.500000 0.500000
v -0.500000 1.500000 0.500000
v -2.500000 0.500000 -0.500000
v -1.500000 0.500000 -0.500000
v -1.500000 -0.500000 -0.500000
v -2.500000 -0.500000 -0.500000
v -2.500000 0.500000 0.500000
v -1.500000 0.500000 0.500000
v -1.500000 -0.500000 0.500000
v -2.500000 -0.500000 0.500000
v -2.500000 2.500000 -0.500000
v -1.500000 2.500000 -0.500000
v -1.500000 1.500000 -0.500000
v -2.500000 1.500000 -0.500000
v -2.500000 2.500000 0.500000
v -1.500000 2.500000 0.500000
v -1.500000 1.500000 0.500000
v -2.500000 1.500000 0.500000
v -0.500000 -3.500000 -0.500000
v 0.500000 -3.500000 -0.500000
v 0.500000 -4.500000 -0.500000
v -0.500000 -4.500000 -0.500000
v -0.500000 -3.500000 0.500000
v 0.500000 -3.500000 0.500000
v 0.500000 -4.500000 0.500000
v -0.500000 -4.500000 0.500000
v -0.500000 -1.500000 -0.500000
v 0.500000 -1.500000 -0.500000
v 0.500000 -2.500000 -0.500000
v -0.500000 -2.500000 -0.500000
v -0.500000 -1.500000 0.500000
v 0.500000 -1.500000 0.500000
v 0.500000 -2.500000 0.500000
v -0.500000 -2.500000 0.500000
v -2.500000 -3.500000 -0.500000
v -1.500000 -3.500000 -0.500000
v -1.500000 -4.500000 -0.500000
v -2.500000 -4.500000 -0.500000
v -2.500000 -3.500000 0.500000
v -1.500000 -3.500000 0.500000
v -1.500000 -4.500000 0.500000
v -2.500000 -4.500000 0.500000
v -2.500000 -1.500000 -0.500000
v -1.500000 -1.500000 -0.500000
v -1.500000 -2.500000 -0.500000
v -2.500000 -2.500000 -0.500000
v -2.500000 -1.500000 0.500000
v -1.500000 -1.500000 0.500000
v -1.500000 -2.500000 0.500000
v -2.500000 -2.500000 0.500000
v 3.500000 0.500000 -0.500000
v 4.500000 0.500000 -0.500000
v 4.500000 -0.500000 -0.500000
v 3.500000 -0.500000 -0.500000
v 3.500000 0.500000 0.500000
v 4.500000 0.500000 0.500000
v 4.500000 -0.500000 0.500000
v 3.500000 -0.500000 0.500000
v 3.500000 2.500000 -0.500000
v 4.500000 2.500000 -0.500000
v 4.500000 1.500000 -0.500000
v 3.500000 1.500000 -0.500000
v 3.500000 2.500000 0.500000
v 4.500000 2.500000 0.500000
v 4.500000 1.500000 0.500000
v 3.500000 1.500000 0.500000
v 1.500000 0.500000 -0.500000
v 2.500000 0.500000 -0.500000
v 2.500000 -0.500000 -0.500000
v 1.500000 -0.500000 -0.500000
v 1.500000 0.500000 0.500000
v 2.500000 0.500000 0.500000
v 2.500000 -0.500000 0.500000
v 1.500000 -0.500000 0.500000
v 1.500000 2.500000 -0.500000
v 2.500000 2.500000 -0.500000
v 2.500000 1.500000 -0.500000
v 1.500000 1.500000 -0.500000
v 1.500000 2.500000 0.500000
v 2.500000 2.500000 0.500000
v 2.500000 1.500000 0.500000
v 1.500000 1.500000 0.500000
v 3.500000 -3.500000 -0.500000
v 4.500000 -3.500000 -0.500000
v 4.500000 -4.500000 -0.500000
v 3.500000 -4.500000 -0.500000
v 3.500000 -3.500000 0.500000
v 4.500000 -3.500000 0.500000
v 4.500000 -4.500000 0.500000
v 3.500000 -4.500000 0.500000
v 3.500000 -1.500000 -0.500000
v 4.500000 -1.500000 -0.500000
v 4.500000 -2.500000 -0.500000
v 3.500000 -2.500000 -0.500000
v 3.500000 -1.500000 0.500000
v 4.500000 -1.500000 0.500000
v 4.500000 -2.500000 0.500000
v 3.500000 -2.500000 0.500000
v 1.500000 -3.500000 -0.500000
v 2.500000 -3.500000 -0.500000
v 2.500000 -4.500000 -0.500000
v 1.500000 -4.500000 -0.500000
v 1.500000 -3.500000 0.500000
v 2.500000 -3.500000 0.500000
v 2.500000 -4.500000 0.500000
v 1.500000 -4.500000 0.500000
v 1.500000 -1.500000 -0.500000
v 2.500000 -1.500000 -0.500000
v 2.500000 -2.500000 -0.500000
v 1.500000 -2.500000 -0.500000
v 1.500000 -1.500000 0.500000
v 2.500000 -1.500000 0.500000
v 2.500000 -2.500000 0.500000
v 1.500000 -2.500000 0.500000
v -2.500000 3.500000 0.500000
v -1.500000 3.500000 0.500000
v -1.500000 4.500000 0.500000
v -2.500000 4.500000 0.500000
v -2.500000 3.500000 -0.500000
v -1.500000 3.500000 -0.500000
v -1.500000 4.500000 -0.500000
v -2.500000 4.500000 -0.500000
v -0.500000 3.500000 0.500000
v 0.500000 3.500000 0.500000
v 0.500000 4.500000 0.500000
v -0.500000 4.500000 0.500000
v -0.500000 3.500000 -0.500000
v 0.500000 3.500000 -0.500000
v 0.500000 4.500000 -0.500000
v -0.500000 4.500000 -0.500000
v 3.500000 4.500000 -0.500000
v 4.500000 4.500000 -0.500000
v 4.500000 3.500000 -0.500000
v 3.500000 3.500000 -0.500000
v 3.500000 4.500000 0.500000
v 4.500000 4.500000 0.500000
v 4.500000 3.500000 0.500000
v 3.500000 3.500000 0.500000
v 1.500000 4.500000 -0.500000
v 2.500000 4.500000 -0.500000
v 2.500000 3.500000 -0.500000
v 1.500000 3.500000 -0.500000
v 1.500000 4.500000 0.500000
v 2.500000 4.500000 0.500000
v 2.500000 3.500000 0.500000
v 1.500000 3.500000 0.500000
v -4.500000 0.500000 -0.500000
v -3.500000 0.500000 -0.500000
v -3.500000 -0.500000 -0.500000
v -4.500000 -0.500000 -0.500000
v -4.500000 0.500000 0.500000
v -3.500000 0.500000 0.500000
v -3.500000 -0.500000 0.500000
v -4.500000 -0.500000 0.500000
v -4.500000 2.500000 -0.500000
v -3.500000 2.500000 -0.500000
v -3.500000 1.500000 -0.500000
v -4.500000 1.500000 -0.500000
v -4.500000 2.500000 0.500000
v -3.500000 2.500000 0.500000
v -3.500000 1.500000 0.500000
v -4.500000 1.500000 0.500000
v -4.500000 -3.500000 -0.500000
v -3.500000 -3.500000 -0.500000
v -3.500000 -4.500000 -0.500000
v -4.500000 -4.500000 -0.500000
v -4.500000 -3.500000 0.500000
v -3.500000 -3.500000 0.500000
v -3.500000 -4.500000 0.500000
v -4.500000 -4.500000 0.500000
v -4.500000 -1.500000 -0.500000
v -3.500000 -1.500000 -0.500000
v -3.500000 -2.500000 -0.500000
v -4.500000 -2.500000 -0.500000
v -4.500000 -1.500000 0.500000
v -3.500000 -1.500000 0.500000
v -3.500000 -2.500000 0.500000
v -4.500000 -2.500000 0.500000
v -4.500000 3.500000 0.500000
v -3.500000 3.500000 0.500000
v -3.500000 4.500000 0.500000
v -4.500000 4.500000 0.500000
v -4.500000 3.500000 -0.500000
v -3.500000 3.500000 -0.500000
v -3.500000 4.500000 -0.500000
v -4.500000 4.500000 -0.500000
v 0.500000 -0.500000 1.500000
v 0.500000 -0.500000 2.500000
v -0.500000 -0.500000 1.500000
v -0.500000 -0.500000 2.500000
v 0.500000 0.500000 1.500000
v 0.500000 0.500000 2.500000
v -0.500000 0.500000 1.500000
v -0.500000 0.500000 2.500000
v 0.000000 -0.500000 2.500000
v -0.500000 0.000000 2.500000
v 0.000000 0.500000 2.500000
v 0.500000 0.000000 2.500000
v 0.000000 0.000000 3.500000
v -3.500000 3.500000 1.500000
v -3.500000 3.500000 2.500000
v -4.500000 3.500000 1.500000
v -4.500000 3.500000 2.500000
v -3.500000 4.500000 1.500000
v -3.500000 4.500000 2.500000
v -4.500000 4.500000 1.500000
v -4.500000 4.500000 2.500000
v -4.000000 3.500000 2.500000
v -4.500000 4.000000 2.500000
v -4.000000 4.500000 2.500000
v -3.500000 4.000000 2.500000
v -4.000000 4.000000 3.500000
vn 0.0000 0.0000 -1.0000
vn 0.0000 0.0000 1.0000
vn 0.0000 1.0000 -0.0000
vn 1.0000 0.0000 -0.0000
vn -0.0000 -1.0000 -0.0000
vn -1.0000 0.0000 0.0000
vn 0.6667 -0.6667 0.3333
vn -0.6667 -0.6667 0.3333
vn 0.6667 0.6667 0.3333
vn -0.6667 0.6667 0.3333
s off
f 2//1 4//1 1//1
f 8//2 6//2 5//2
f 5//3 2//3 1//3
f 6//4 3//4 2//4
f 3//5 8//5 4//5
f 1//6 8//6 5//6
f 10//1 12//1 9//1
f 16//2 14//2 13//2
f 13//3 10//3 9//3
f 14//4 11//4 10//4
f 15//5 12//5 11//5
f 9//6 16//6 13//6
f 17//1 19//1 20//1
f 24//2 22//2 21//2
f 21//3 18//3 17//3
f 22//4 19//4 18//4
f 23//5 20//5 19//5
f 17//6 24//6 21//6
f 25//1 27//1 28//1
f 32//2 30//2 29//2
f 29//3 26//3 25//3
f 30//4 27//4 26//4
f 31//5 28//5 27//5
f 25//6 32//6 29//6
f 34//1 36//1 33//1
f 40//2 38//2 37//2
f 37//3 34//3 33//3
f 38//4 35//4 34//4
f 39//5 36//5 35//5
f 33//6 40//6 37//6
f 42//1 44//1 41//1
f 48//2 46//2 45//2
f 45//3 42//3 41//3
f 46//4 43//4 42//4
f 47//5 44//5 43//5
f 41//6 48//6 45//6
f 50//1 52//1 49//1
f 56//2 54//2 53//2
f 53//3 50//3 49//3
f 54//4 51//4 50//4
f 51//5 56//5 52//5
f 49//6 56//6 53//6
f 57//1 59//1 60//1
f 64//2 62//2 61//2
f 61//3 58//3 57//3
f 62//4 59//4 58//4
f 63//5 60//5 59//5
f 57//6 64//6 61//6
f 66//1 68//1 65//1
f 72//2 70//2 69//2
f 69//3 66//3 65//3
f 70//4 67//4 66//4
f 71//5 68//5 67//5
f 65//6 72//6 69//6
f 74//1 76//1 73//1
f 80//2 78//2 77//2
f 77//3 74//3 73//3
f 78//4 75//4 74//4
f 75//5 80//5 76//5
f 73//6 80//6 77//6
f 82//1 84//1 81//1
f 88//2 86//2 85//2
f 85//3 82//3 81//3
f 86//4 83//4 82//4
f 87//5 84//5 83//5
f 81//6 88//6 85//6
f 90//1 92//1 89//1
f 96//2 94//2 93//2
f 93//3 90//3 89//3
f 94//4 91//4 90//4
f 91//5 96//5 92//5
f 89//6 96//6 93//6
f 98//1 100//1 97//1
f 104//2 102//2 101//2
f 101//3 98//3 97//3
f 102//4 99//4 98//4
f 103//5 100//5 99//5
f 97//6 104//6 101//6
f 106//1 108//1 105//1
f 112//2 110//2 109//2
f 109//3 106//3 105//3
f 110//4 107//4 106//4
f 111//5 108//5 107//5
f 105//6 112//6 109//6
f 114//1 116//1 113//1
f 120//2 118//2 117//2
f 117//3 114//3 113//3
f 118//4 115//4 114//4
f 119//5 116//5 115//5
f 113//6 120//6 117//6
f 122//1 124//1 121//1
f 128//2 126//2 125//2
f 125//3 122//3 121//3
f 126//4 123//4 122//4
f 123//5 128//5 124//5
f 121//6 128//6 125//6
f 139//4 142//4 143//4
f 140//3 143//3 144//3
f 140//2 138//2 139//2
f 143//1 141//1 144//1
f 138//5 141//5 142//5
f 144//6 137//6 140//6
f 136//1 134//1 133//1
f 132//2 130//2 131//2
f 132//3 135//3 136//3
f 131//4 134//4 135//4
f 130//5 133//5 134//5
f 136//6 129//6 132//6
f 146//1 148//1 145//1
f 149//2 151//2 150//2
f 149//3 146//3 145//3
f 150//4 147//4 146//4
f 147//5 152//5 148//5
f 149//6 148//6 152//6
f 154//1 156//1 153//1
f 157//2 159//2 158//2
f 157//3 154//3 153//3
f 158//4 155//4 154//4
f 155//5 160//5 156//5
f 153//6 160//6 157//6
f 162//1 164//1 161//1
f 168//2 166//2 165//2
f 165//3 162//3 161//3
f 166//4 163//4 162//4
f 167//5 164//5 163//5
f 161//6 168//6 165//6
f 170//1 172//1 169//1
f 176//2 174//2 173//2
f 173//3 170//3 169//3
f 174//4 171//4 170//4
f 175//5 172//5 171//5
f 169//6 176//6 173//6
f 178//1 180//1 177//1
f 184//2 182//2 181//2
f 181//3 178//3 177//3
f 182//4 179//4 178//4
f 183//5 180//5 179//5
f 177//6 184//6 181//6
f 186//1 188//1 185//1
f 192//2 190//2 189//2
f 189//3 186//3 185//3
f 190//4 187//4 186//4
f 191//5 188//5 187//5
f 185//6 192//6 189//6
f 199//1 197//1 200//1
f 193//2 195//2 196//2
f 196//3 199//3 200//3
f 195//4 198//4 199//4
f 194//5 197//5 198//5
f 196//6 197//6 193//6
f 2//1 3//1 4//1
f 8//2 7//2 6//2
f 5//3 6//3 2//3
f 6//4 7//4 3//4
f 3//5 7//5 8//5
f 1//6 4//6 8//6
f 10//1 11//1 12//1
f 16//2 15//2 14//2
f 13//3 14//3 10//3
f 14//4 15//4 11//4
f 15//5 16//5 12//5
f 9//6 12//6 16//6
f 17//1 18//1 19//1
f 24//2 23//2 22//2
f 21//3 22//3 18//3
f 22//4 23//4 19//4
f 23//5 24//5 20//5
f 17//6 20//6 24//6
f 25//1 26//1 27//1
f 32//2 31//2 30//2
f 29//3 30//3 26//3
f 30//4 31//4 27//4
f 31//5 32//5 28//5
f 25//6 28//6 32//6
f 34//1 35//1 36//1
f 40//2 39//2 38//2
f 37//3 38//3 34//3
f 38//4 39//4 35//4
f 39//5 40//5 36//5
f 33//6 36//6 40//6
f 42//1 43//1 44//1
f 48//2 47//2 46//2
f 45//3 46//3 42//3
f 46//4 47//4 43//4
f 47//5 48//5 44//5
f 41//6 44//6 48//6
f 50//1 51//1 52//1
f 56//2 55//2 54//2
f 53//3 54//3 50//3
f 54//4 55//4 51//4
f 51//5 55//5 56//5
f 49//6 52//6 56//6
f 57//1 58//1 59//1
f 64//2 63//2 62//2
f 61//3 62//3 58//3
f 62//4 63//4 59//4
f 63//5 64//5 60//5
f 57//6 60//6 64//6
f 66//1 67//1 68//1
f 72//2 71//2 70//2
f 69//3 70//3 66//3
f 70//4 71//4 67//4
f 71//5 72//5 68//5
f 65//6 68//6 72//6
f 74//1 75//1 76//1
f 80//2 79//2 78//2
f 77//3 78//3 74//3
f 78//4 79//4 75//4
f 75//5 79//5 80//5
f 73//6 76//6 80//6
f 82//1 83//1 84//1
f 88//2 87//2 86//2
f 85//3 86//3 82//3
f 86//4 87//4 83//4
f 87//5 88//5 84//5
f 81//6 84//6 88//6
f 90//1 91//1 92//1
f 96//2 95//2 94//2
f 93//3 94//3 90//3
f 94//4 95//4 91//4
f 91//5 95//5 96//5
f 89//6 92//6 96//6
f 98//1 99//1 100//1
f 104//2 103//2 102//2
f 101//3 102//3 98//3
f 102//4 103//4 99//4
f 103//5 104//5 100//5
f 97//6 100//6 104//6
f 106//1 107//1 108//1
f 112//2 111//2 110//2
f 109//3 110//3 106//3
f 110//4 111//4 107//4
f 111//5 112//5 108//5
f 105//6 108//6 112//6
f 114//1 115//1 116//1
f 120//2 119//2 118//2
f 117//3 118//3 114//3
f 118//4 119//4 115//4
f 119//5 120//5 116//5
f 113//6 116//6 120//6
f 122//1 123//1 124//1
f 128//2 127//2 126//2
f 125//3 126//3 122//3
f 126//4 127//4 123//4
f 123//5 127//5 128//5
f 121//6 124//6 128//6
f 139//4 138//4 142//4
f 140//3 139//3 143//3
f 140//2 137//2 138//2
f 143//1 142//1 141//1
f 138//5 137//5 141//5
f 144//6 141//6 137//6
f 136//1 135//1 134//1
f 132//2 129//2 130//2
f 132//3 131//3 135//3
f 131//4 130//4 134//4
f 130//5 129//5 133//5
f 136//6 133//6 129//6
f 146//1 147//1 148//1
f 149//2 152//2 151//2
f 149//3 150//3 146//3
f 150//4 151//4 147//4
f 147//5 151//5 152//5
f 149//6 145//6 148//6
f 154//1 155//1 156//1
f 157//2 160//2 159//2
f 157//3 158//3 154//3
f 158//4 159//4 155//4
f 155//5 159//5 160//5
f 153//6 156//6 160//6
f 162//1 163//1 164//1
f 168//2 167//2 166//2
f 165//3 166//3 162//3
f 166//4 167//4 163//4
f 167//5 168//5 164//5
f 161//6 164//6 168//6
f 170//1 171//1 172//1
f 176//2 175//2 174//2
f 173//3 174//3 170//3
f 174//4 175//4 171//4
f 175//5 176//5 172//5
f 169//6 172//6 176//6
f 178//1 179//1 180//1
f 184//2 183//2 182//2
f 181//3 182//3 178//3
f 182//4 183//4 179//4
f 183//5 184//5 180//5
f 177//6 180//6 184//6
f 186//1 187//1 188//1
f 192//2 191//2 190//2
f 189//3 190//3 186//3
f 190//4 191//4 187//4
f 191//5 192//5 188//5
f 185//6 188//6 192//6
f 199//1 198//1 197//1
f 193//2 194//2 195//2
f 196//3 195//3 199//3
f 195//4 194//4 198//4
f 194//5 193//5 197//5
f 196//6 200//6 197//6
f 202//5 209//5 201//5
f 204//6 210//6 203//6
f 208//3 211//3 207//3
f 206//4 212//4 205//4
f 207//1 201//1 203//1
f 209//7 212//7 213//7
f 211//2 212//2 206//2
f 210//2 211//2 208//2
f 210//8 209//8 213//8
f 203//5 201//5 209//5
f 209//5 204//5 203//5
f 207//6 203//6 210//6
f 210//6 208//6 207//6
f 205//3 207//3 211//3
f 211//3 206//3 205//3
f 201//4 205//4 212//4
f 212//4 202//4 201//4
f 207//1 205//1 201//1
f 209//2 202//2 212//2
f 211//9 213//9 212//9
f 210//10 213//10 211//10
f 210//2 204//2 209//2
f 215//5 222//5 214//5
f 217//6 223//6 216//6
f 221//3 224//3 220//3
f 219//4 225//4 218//4
f 220//1 214//1 216//1
f 222//7 225//7 226//7
f 224//2 225//2 219//2
f 223//2 224//2 221//2
f 223//8 222//8 226//8
f 216//5 214//5 222//5
f 222//5 217//5 216//5
f 220//6 216//6 223//6
f 223//6 221//6 220//6
f 218//3 220//3 224//3
f 224//3 219//3 218//3
f 214//4 218//4 225//4
f 225//4 215//4 214//4
f 220//1 218//1 214//1
f 222//2 215//2 225//2
f 224//9 226//9 225//9
f 223//10 226//10 224//10
f 223//2 217//2 222//2
